<?xml version="1.0" standalone="no"?>
<!DOCTYPE svg PUBLIC "-//W3C//DTD SVG 20010904//EN"
 "http://www.w3.org/TR/2001/REC-SVG-20010904/DTD/svg10.dtd">
<svg version="1.0" xmlns="http://www.w3.org/2000/svg"
 width="1024.000000pt" height="1024.000000pt" viewBox="0 0 1024.000000 1024.000000"
 preserveAspectRatio="xMidYMid meet">

<g transform="translate(0.000000,1024.000000) scale(0.100000,-0.100000)"
fill="#000000" stroke="none">
<path d="M3460 7611 c-127 -41 -226 -119 -285 -226 -47 -84 -56 -128 -57 -272
l-1 -127 32 -28 c38 -34 86 -37 147 -9 48 22 72 53 104 136 45 115 117 192
233 245 80 37 127 110 127 195 0 46 -13 83 -34 97 -22 15 -209 7 -266 -11z"/>
<path d="M6505 7600 c-25 -48 -22 -118 8 -184 25 -54 29 -57 110 -95 133 -61
204 -140 243 -271 17 -57 57 -90 131 -110 49 -12 104 5 122 38 16 31 14 228
-4 295 -41 160 -139 266 -300 327 -45 17 -89 24 -177 28 l-116 5 -17 -33z"/>
<path d="M3896 7608 c-3 -7 -7 -52 -10 -100 l-6 -88 1241 0 1242 0 -7 31 c-3
17 -6 62 -6 100 l0 69 -1225 0 c-972 0 -1226 -3 -1229 -12z"/>
<path d="M6127 7144 c-29 -16 -96 -112 -146 -212 l-30 -60 62 -37 c34 -21 134
-80 222 -132 88 -52 185 -110 217 -129 31 -19 58 -34 61 -34 3 0 13 24 23 53
9 28 39 85 65 125 80 120 66 182 -58 260 -278 174 -349 203 -416 166z"/>
<path d="M3843 7110 c-64 -37 -83 -71 -83 -146 0 -72 27 -115 88 -145 32 -16
52 -19 80 -14 56 10 122 52 137 88 l13 32 327 1 c304 0 327 -1 336 -18 25 -46
121 -62 185 -32 104 49 98 171 -11 224 -41 20 -51 21 -85 11 -23 -7 -48 -24
-60 -41 l-21 -30 -342 0 c-334 0 -342 0 -355 20 -18 30 -101 80 -131 80 -15 0
-50 -14 -78 -30z"/>
<path d="M5652 7004 c-65 -32 -94 -68 -167 -202 -32 -59 -89 -161 -128 -227
-92 -158 -143 -262 -150 -305 -10 -56 8 -111 46 -145 43 -38 148 -100 165 -99
8 1 6 -8 -7 -30 -11 -17 -49 -87 -85 -154 -49 -91 -63 -128 -57 -140 5 -10 54
-44 108 -76 54 -33 168 -103 254 -158 85 -54 160 -98 165 -98 9 1 31 41 94
170 18 36 56 99 85 140 29 42 63 96 75 120 13 25 39 70 60 100 107 160 171
261 195 310 15 30 55 92 88 138 33 45 58 84 56 86 -6 6 -169 100 -264 154 -44
24 -122 70 -173 101 -147 88 -154 92 -169 79 -8 -6 -29 -41 -47 -77 -18 -36
-64 -120 -101 -186 -37 -66 -94 -167 -126 -225 -33 -58 -68 -115 -78 -128
l-19 -22 -36 22 c-20 13 -51 32 -69 43 -19 13 -33 30 -35 46 -6 53 283 576
353 638 41 36 82 40 145 15 23 -9 42 -15 44 -13 16 21 46 79 46 88 0 7 -24 23
-52 36 -73 34 -147 34 -216 -1z m-201 -911 c-12 -20 -14 -14 -5 12 4 9 9 14
11 11 3 -2 0 -13 -6 -23z"/>
<path d="M6925 6822 c-3 -3 -5 -554 -5 -1225 l0 -1219 33 7 c17 5 59 9 92 11
l60 2 3 1207 2 1207 -48 -7 c-32 -4 -62 -1 -90 8 -23 8 -44 12 -47 9z"/>
<path d="M3265 6809 c-16 -6 -54 -7 -82 -4 l-53 5 0 -1215 0 -1214 33 7 c41 9
74 8 115 -2 l32 -8 0 59 c0 32 0 495 1 1028 2 1181 1 1355 -8 1354 -5 0 -21
-5 -38 -10z"/>
<path d="M4023 6560 c-32 -13 -46 -39 -137 -257 -46 -109 -131 -304 -191 -433
-59 -129 -109 -249 -112 -266 l-5 -31 64 -7 c35 -4 70 -5 78 -1 19 7 57 69
101 163 l34 74 44 -6 c24 -3 124 -6 222 -6 137 0 179 -3 179 -12 0 -7 22 -59
50 -115 l49 -103 85 0 c86 0 86 0 86 26 0 14 -52 132 -116 262 -64 130 -157
325 -206 432 -111 241 -125 265 -155 279 -28 13 -40 13 -70 1z m77 -387 c36
-74 90 -199 90 -207 0 -8 -166 -7 -213 0 -33 6 -37 9 -31 28 13 43 108 246
114 246 4 0 22 -30 40 -67z"/>
<path d="M4760 6540 l-25 -19 -5 -443 c-3 -244 -1 -455 3 -470 11 -35 54 -52
112 -44 80 12 75 -18 75 496 l0 459 -26 20 c-34 27 -100 28 -134 1z"/>
<path d="M6404 5961 c-102 -62 -115 -171 -29 -250 l44 -41 1 -207 c0 -115 1
-216 0 -225 0 -10 -6 -18 -13 -18 -7 0 -34 -13 -60 -30 l-48 -30 -197 0 c-252
0 -270 -3 -288 -46 -8 -18 -14 -44 -14 -56 l0 -23 231 3 c223 4 233 3 260 -17
46 -34 77 -42 118 -31 41 11 94 61 110 103 6 16 11 102 11 195 0 92 3 218 7
279 l6 113 34 20 c19 11 40 35 48 55 19 44 19 118 0 154 -32 62 -157 91 -221
52z"/>
<path d="M5146 5563 c-39 -61 -42 -94 -9 -125 44 -41 457 -288 481 -288 44 0
112 78 99 113 -3 9 -39 38 -79 65 -103 69 -443 272 -456 272 -7 0 -23 -17 -36
-37z"/>
<path d="M5036 5331 c-3 -5 -38 -31 -78 -58 -40 -27 -122 -89 -183 -138 -60
-48 -134 -101 -162 -117 -29 -17 -56 -35 -60 -41 -4 -7 -6 -66 -4 -132 1 -66
-2 -167 -8 -225 -15 -139 -66 -417 -92 -505 -45 -151 -44 -143 -19 -170 13
-14 29 -25 35 -25 7 0 44 31 82 68 78 77 225 177 360 246 110 56 364 146 414
146 41 0 59 15 59 50 0 63 112 538 144 611 5 12 -33 40 -171 126 -286 178
-303 187 -317 164z m51 -446 c67 -45 68 -186 1 -228 -12 -8 -42 -18 -65 -22
-49 -8 -72 -33 -174 -186 -35 -53 -86 -127 -114 -164 -27 -37 -64 -86 -80
-109 -38 -50 -57 -55 -79 -21 -17 26 -17 28 9 81 37 75 220 351 263 396 34 36
35 39 24 76 -7 22 -12 51 -12 66 0 101 139 168 227 111z"/>
<path d="M3829 5249 c-51 -30 -69 -66 -69 -137 0 -53 4 -66 33 -104 18 -24 49
-52 70 -63 38 -21 48 -35 23 -35 -8 0 -18 -5 -22 -11 -4 -7 -8 -134 -10 -283
-2 -149 -8 -295 -14 -325 -8 -45 -7 -59 5 -78 23 -35 69 -31 107 9 28 30 30
37 24 83 -3 27 -6 182 -6 342 l-1 293 37 36 c88 88 84 198 -9 265 -50 36 -114
39 -168 8z"/>
<path d="M6303 4440 c-24 -11 -48 -30 -55 -45 l-11 -25 -318 0 -319 0 -15 -24
c-19 -28 -7 -69 24 -85 13 -7 125 -11 311 -11 l290 0 9 -23 c14 -37 76 -84
119 -92 49 -8 114 10 147 41 30 28 49 92 41 138 -8 40 -55 100 -95 120 -49 25
-84 27 -128 6z"/>
<path d="M3132 4262 c-19 -13 -26 -163 -13 -267 20 -147 86 -264 190 -334 89
-61 138 -74 288 -79 l133 -4 10 27 c22 57 4 162 -35 205 -10 11 -46 33 -81 49
-87 41 -166 117 -209 203 -19 38 -37 85 -41 103 -8 42 -25 58 -92 84 -54 21
-127 27 -150 13z"/>
<path d="M6988 4260 c-67 -13 -118 -41 -124 -69 -38 -173 -99 -251 -258 -331
-92 -47 -111 -80 -111 -195 l0 -80 75 -5 c189 -13 303 23 416 132 112 107 144
200 144 420 0 106 -2 118 -19 128 -22 11 -67 11 -123 0z"/>
<path d="M3875 3765 c3 -11 9 -57 12 -102 l6 -83 1216 -2 c669 -2 1220 0 1225
4 9 7 40 188 33 194 -2 2 -565 5 -1251 6 -1243 3 -1247 3 -1241 -17z"/>
</g>
</svg>
